<?xml version="1.0" encoding="UTF-8" standalone="no"?>
<!-- Created with Inkscape (http://www.inkscape.org/) -->

<svg
   width="44"
   height="44"
   viewBox="0 0 44 44"
   version="1.1"
   id="svg947"
   inkscape:version="1.1.2 (0a00cf5339, 2022-02-04)"
   sodipodi:docname="tethys_skipback.svg"
   xmlns:inkscape="http://www.inkscape.org/namespaces/inkscape"
   xmlns:sodipodi="http://sodipodi.sourceforge.net/DTD/sodipodi-0.dtd"
   xmlns="http://www.w3.org/2000/svg"
   xmlns:svg="http://www.w3.org/2000/svg">
  <sodipodi:namedview
     id="namedview949"
     pagecolor="#00df8d"
     bordercolor="#666666"
     borderopacity="1.0"
     inkscape:pageshadow="2"
     inkscape:pageopacity="0"
     inkscape:pagecheckerboard="0"
     inkscape:document-units="px"
     showgrid="true"
     inkscape:zoom="8"
     inkscape:cx="0.875"
     inkscape:cy="25.875"
     inkscape:window-width="1920"
     inkscape:window-height="1018"
     inkscape:window-x="0"
     inkscape:window-y="0"
     inkscape:window-maximized="1"
     inkscape:current-layer="layer1"
     units="px"
     viewbox-width="11.64167">
    <inkscape:grid
       type="xygrid"
       id="grid5671" />
  </sodipodi:namedview>
  <defs
     id="defs944">
    <marker
       style="overflow:visible"
       id="DiamondS"
       refX="0.0"
       refY="0.0"
       orient="auto"
       inkscape:stockid="DiamondS"
       inkscape:isstock="true">
      <path
         transform="scale(1)"
         d="M -1.4164253,0.00218916 0.70489503,2.1235095 1.4120018,1.4164027 -0.00221177,0.00218918 1.4120018,-1.4120244 0.70489503,-2.1191312 Z"
         id="path9242" />
    </marker>
    <marker
       style="overflow:visible"
       id="DiamondSOrig"
       refX="0.0"
       refY="0.0"
       orient="auto"
       inkscape:stockid="DiamondS"
       inkscape:isstock="true">
      <path
         transform="scale(0.2)"
         style="fill-rule:evenodd;fill:context-stroke;stroke:context-stroke;stroke-width:1.0pt"
         d="M 0,-7.0710768 L -7.0710894,0 L 0,7.0710589 L 7.0710462,0 L 0,-7.0710768 z "
         id="path6" />
    </marker>
    <marker
       style="overflow:visible"
       id="SquareL"
       refX="0.0"
       refY="0.0"
       orient="auto"
       inkscape:stockid="SquareL"
       inkscape:isstock="true">
      <path
         transform="scale(0.8)"
         style="fill-rule:evenodd;fill:context-stroke;stroke:context-stroke;stroke-width:1.0pt"
         d="M -5.0,-5.0 L -5.0,5.0 L 5.0,5.0 L 5.0,-5.0 L -5.0,-5.0 z "
         id="path9227" />
    </marker>
    <marker
       style="overflow:visible"
       id="DiamondS-3"
       refX="0"
       refY="0"
       orient="auto"
       inkscape:stockid="DiamondS"
       inkscape:isstock="true">
      <path
         d="M -1.4164253,0.00218916 0.70489503,2.1235095 1.4120018,1.4164027 -0.00221177,0.00218918 1.4120018,-1.4120244 0.70489503,-2.1191312 Z"
         id="path9242-6" />
    </marker>
    <marker
       style="overflow:visible"
       id="DiamondS-5"
       refX="0"
       refY="0"
       orient="auto"
       inkscape:stockid="DiamondS"
       inkscape:isstock="true">
      <path
         d="M -1.4164253,0.00218916 0.70489503,2.1235095 1.4120018,1.4164027 -0.00221177,0.00218918 1.4120018,-1.4120244 0.70489503,-2.1191312 Z"
         id="path9242-3" />
    </marker>
  </defs>
  <g
     inkscape:label="Layer 1"
     inkscape:groupmode="layer"
     id="layer1"
     style="display:inline">
    <path
       id="sadfasdfadf"
       style="color:#000000;display:inline;fill:#000000;stroke-width:1.06418;-inkscape-stroke:none"
       d="M 10.511898,7.9999999 V 17.57764 h 9.577641 v -3.192547 h -3.926252 c 3.377311,-2.385404 7.930235,-2.505902 11.469058,-0.141336 4.028979,2.692078 5.587288,7.829923 3.732951,12.306685 -1.854335,4.476763 -6.589763,7.008261 -11.34227,6.062929 -4.752506,-0.945333 -8.158037,-5.09784 -8.158037,-9.943453 H 8.6724422 c 0,6.349074 4.4999608,11.835002 10.7270398,13.073645 6.227079,1.238643 12.485494,-2.105194 14.915179,-7.970974 C 36.744346,21.906809 34.684352,15.114815 29.40529,11.587458 26.765759,9.8237796 23.680838,9.1171475 20.694376,9.4112885 18.187051,9.6582384 15.750413,10.61433 13.704444,12.242179 V 7.9999999 Z"
       sodipodi:nodetypes="cccccsssccssssccc" />
  </g>
</svg>
